<svg width="30" height="40" viewBox="0 0 30 40" fill="none" xmlns="http://www.w3.org/2000/svg">
<path d="M7.42587 26.3432L5.83333 38.3334L14.2454 33.2861C14.5198 33.1215 14.6569 33.0392 14.8034 33.007C14.9329 32.9786 15.0671 32.9786 15.1966 33.007C15.3431 33.0392 15.4802 33.1215 15.7546 33.2861L24.1667 38.3334L22.5752 26.338M23.1141 5.78963C23.3973 6.47442 23.9407 7.01873 24.6251 7.30291L27.0247 8.29691C27.7095 8.58058 28.2536 9.12468 28.5373 9.80952C28.8209 10.4944 28.8209 11.2638 28.5373 11.9487L27.544 14.3467C27.2602 15.0318 27.2598 15.8021 27.5449 16.4869L28.5364 18.8842C28.677 19.2233 28.7495 19.5869 28.7495 19.9541C28.7496 20.3213 28.6773 20.6849 28.5368 21.0241C28.3963 21.3634 28.1903 21.6716 27.9306 21.9312C27.6709 22.1908 27.3627 22.3967 27.0234 22.5371L24.6255 23.5304C23.9407 23.8135 23.3964 24.357 23.1123 25.0414L22.1183 27.4411C21.8346 28.1259 21.2906 28.67 20.6057 28.9537C19.9209 29.2374 19.1515 29.2374 18.4667 28.9537L16.0688 27.9604C15.3839 27.6775 14.6148 27.678 13.9304 27.962L11.5307 28.9546C10.8463 29.2376 10.0775 29.2374 9.39326 28.9539C8.709 28.6705 8.16522 28.127 7.88137 27.4429L6.88711 25.0425C6.60398 24.3577 6.0605 23.8134 5.37616 23.5292L2.97654 22.5352C2.29202 22.2517 1.7481 21.7079 1.46434 21.0235C1.18057 20.339 1.18019 19.5699 1.46327 18.8852L2.45651 16.4872C2.73947 15.8023 2.7389 15.0331 2.45491 14.3487L1.46309 11.9473C1.32247 11.6081 1.25006 11.2445 1.25 10.8773C1.24994 10.5101 1.32223 10.1465 1.46274 9.80728C1.60326 9.46804 1.80923 9.15982 2.06891 8.90022C2.32858 8.64062 2.63686 8.43474 2.97613 8.29433L5.37403 7.30105C6.0582 7.01815 6.60217 6.47534 6.88654 5.79176L7.8805 3.39205C8.16416 2.70721 8.70824 2.16311 9.39306 1.87944C10.0779 1.59577 10.8473 1.59577 11.5321 1.87944L13.93 2.87272C14.6149 3.15569 15.384 3.15511 16.0685 2.87111L18.4691 1.88098C19.1538 1.59747 19.9231 1.59753 20.6078 1.88114C21.2925 2.16475 21.8365 2.7087 22.1202 3.39336L23.1144 5.79379L23.1141 5.78963Z" stroke="white" stroke-width="2" stroke-linecap="round" stroke-linejoin="round"/>
</svg>
