<svg width="32" height="40" viewBox="0 0 32 40" fill="none" xmlns="http://www.w3.org/2000/svg">
<path d="M23.3333 5.33335C25.0382 5.33335 25.8907 5.33335 26.5901 5.52076C28.4881 6.02933 29.9706 7.51184 30.4792 9.40985C30.6666 10.1093 30.6666 10.9617 30.6666 12.6667V29.5334C30.6666 32.6136 30.6666 34.1538 30.0671 35.3303C29.5398 36.3652 28.6984 37.2066 27.6635 37.7339C26.487 38.3334 24.9469 38.3334 21.8666 38.3334H10.1333C7.05296 38.3334 5.51282 38.3334 4.3363 37.7339C3.30141 37.2066 2.46002 36.3652 1.93272 35.3303C1.33325 34.1538 1.33325 32.6136 1.33325 29.5334V12.6667C1.33325 10.9617 1.33325 10.1093 1.52066 9.40985C2.02923 7.51184 3.51174 6.02933 5.40975 5.52076C6.10916 5.33335 6.96164 5.33335 8.66659 5.33335M10.4999 25.5L14.1666 29.1667L22.4166 20.9167M11.5999 9.00002H20.3999C21.4267 9.00002 21.9401 9.00002 22.3322 8.8002C22.6772 8.62443 22.9577 8.34397 23.1334 7.999C23.3333 7.60683 23.3333 7.09345 23.3333 6.06669V4.60002C23.3333 3.57326 23.3333 3.05988 23.1334 2.6677C22.9577 2.32274 22.6772 2.04228 22.3322 1.86651C21.9401 1.66669 21.4267 1.66669 20.3999 1.66669H11.5999C10.5732 1.66669 10.0598 1.66669 9.6676 1.86651C9.32264 2.04228 9.04217 2.32274 8.86641 2.6677C8.66659 3.05988 8.66659 3.57326 8.66659 4.60002V6.06669C8.66659 7.09345 8.66659 7.60683 8.86641 7.999C9.04217 8.34397 9.32264 8.62443 9.6676 8.8002C10.0598 9.00002 10.5732 9.00002 11.5999 9.00002Z" stroke="white" stroke-width="2" stroke-linecap="round" stroke-linejoin="round"/>
</svg>
