<svg width="54" height="70" viewBox="0 0 54 70" fill="none" xmlns="http://www.w3.org/2000/svg">
<mask id="mask0_2_2971" style="mask-type:luminance" maskUnits="userSpaceOnUse" x="0" y="0" width="54" height="70">
<path d="M54 0H0V70H54V0Z" fill="white"/>
</mask>
<g mask="url(#mask0_2_2971)">
<path d="M52.9482 2.74096C52.5408 1.88216 51.659 1.2702 49.6838 1.07479C40.5608 0.169703 36.2907 0 26.7914 0H26.7863C17.2817 0 13.1405 0.154275 3.87836 1.07479C1.89803 1.2702 1.01616 1.88216 0.608751 2.7461C0.309639 3.38378 0.268382 4.1603 0.227125 5.00368C-0.273114 15.3761 0.0311553 43.5983 1.41326 59.4784C1.57313 61.3142 1.6608 63.2633 1.92897 64.8781C2.33639 67.3208 3.35748 68.015 5.30171 68.4162C8.69508 69.1206 15.3631 69.6812 26.7706 69.6812C38.1783 69.6812 44.8618 69.1258 48.2604 68.4212C50.2045 68.0201 51.2257 67.331 51.6331 64.8832C51.9012 63.2684 51.9838 61.3194 52.1488 59.4836C53.5309 43.6035 53.8351 15.3813 53.3349 5.00882C53.2936 4.1603 53.2524 3.38378 52.9482 2.74096ZM2.61486 6.15046C2.67675 4.8751 2.48078 3.97002 3.51221 3.27064L18.5555 5.97561C19.0711 5.68249 26.5541 5.67735 26.7863 5.67735C27.0183 5.67735 34.5012 5.68249 35.0169 5.97561L49.9364 3.25007C50.973 3.94432 50.7976 4.8751 50.8596 6.15046C51.0142 9.3594 51.0864 14.3425 51.0762 20.1329L51.0709 20.2306L39.1323 21.0638C36.167 21.3415 35.8215 22.0975 35.8111 23.4602C35.8111 23.4602 35.672 32.799 35.5893 36.08C35.4759 40.7443 35.0736 47.6969 35.0685 47.9282C35.0323 49.0443 34.2795 49.8619 33.212 49.9493C33.212 49.9493 29.406 50.0882 26.7964 50.0625C26.7759 50.0625 26.7605 50.0625 26.7397 50.0625C26.7192 50.0625 26.7038 50.0625 26.6831 50.0625C24.0735 50.083 20.2675 49.9493 20.2675 49.9493C19.2001 49.8567 18.4421 49.0443 18.411 47.9282C18.4059 47.6969 18.0036 40.7443 17.8902 36.08C17.8077 32.799 17.6685 23.4602 17.6685 23.4602C17.6632 22.0975 17.3125 21.3415 14.3473 21.0638L2.39826 20.1175C2.38795 14.3322 2.46015 9.35425 2.61486 6.15046ZM26.7346 52.1142H26.7914L32.7426 52.0526C37.384 52.0783 36.9251 51.6824 37.544 47.6094C37.6986 46.5912 39.8491 23.671 39.8491 23.671C39.9213 23.1414 40.2153 22.9151 40.633 22.8637L50.7357 21.542C50.9214 21.5163 51.0864 21.6655 51.0813 21.8557C51.0813 21.8557 50.2561 59.787 49.1886 64.3998C48.9566 65.3923 48.6987 65.6238 47.8323 65.8294C47.8323 65.8294 42.7422 67.0276 26.745 67.0431C10.7373 67.0224 5.64723 65.8243 5.64723 65.8243C4.78085 65.6186 4.52299 65.3923 4.29092 64.3947C3.2234 59.787 2.39826 21.8557 2.39826 21.8557C2.3931 21.6706 2.55813 21.5215 2.74378 21.542L12.8466 22.8637C13.2643 22.9203 13.5582 23.1414 13.6304 23.671C13.6304 23.671 15.7809 46.5912 15.9357 47.6094C16.5545 51.6772 16.0954 52.0783 20.7369 52.0526L26.6882 52.1142H26.7346Z" fill="white"/>
<path d="M22.3142 56.3914C22.2935 56.3607 22.2575 56.34 22.2214 56.34H20.5969C20.5556 56.34 20.5247 56.3607 20.4989 56.3914L17.1209 61.3952C17.0951 61.4311 17.1209 61.4825 17.1674 61.4825H18.7454C18.7816 61.4825 18.8177 61.462 18.8383 61.4311L19.7098 60.1455C19.7512 60.0838 19.8233 60.0478 19.8955 60.0478H22.9175C22.9949 60.0478 23.062 60.0838 23.1032 60.1455L23.9747 61.4311C23.9954 61.462 24.0314 61.4825 24.0676 61.4825H25.6457C25.6921 61.4825 25.7179 61.4311 25.6921 61.3952L22.3142 56.3914ZM22.2832 59.2404H20.5349C20.4473 59.2404 20.3906 59.1427 20.4422 59.0656L21.3137 57.7696C21.3601 57.7028 21.4529 57.7028 21.4994 57.7696L22.376 59.0656C22.4225 59.1427 22.3709 59.2404 22.2832 59.2404Z" fill="white"/>
<path d="M17.0546 56.34H8.94237C8.89596 56.34 8.87017 56.3914 8.89596 56.4275L9.31368 57.0497C9.35494 57.1113 9.42714 57.1474 9.49933 57.1474H12.1037C12.1656 57.1474 12.2171 57.1988 12.2171 57.2605V61.4209C12.2171 61.4568 12.2429 61.4825 12.279 61.4825H13.6972C13.7333 61.4825 13.7591 61.4568 13.7591 61.4209V57.2605C13.7591 57.1988 13.8107 57.1474 13.8726 57.1474H16.482C16.5594 57.1474 16.6264 57.1113 16.6677 57.0497L17.0854 56.4275C17.1267 56.3914 17.1009 56.34 17.0546 56.34Z" fill="white"/>
<path d="M35.2168 56.34H33.7987C33.7625 56.34 33.7367 56.3709 33.7367 56.4017V60.0016C33.7367 60.0478 33.6851 60.0736 33.6439 60.0478L28.9561 56.3914C28.9148 56.3607 28.8632 56.34 28.8065 56.34H27.409C27.3728 56.34 27.347 56.3709 27.347 56.4017V61.4209C27.347 61.4568 27.3728 61.4825 27.409 61.4825H28.8272C28.8632 61.4825 28.889 61.4568 28.889 61.4209V57.8211C28.889 57.7748 28.9406 57.7491 28.9819 57.7748L33.6697 61.4311C33.7109 61.462 33.7625 61.4825 33.8192 61.4825H35.2168C35.2529 61.4825 35.2787 61.4568 35.2787 61.4209V56.4017C35.2787 56.3709 35.2529 56.34 35.2168 56.34Z" fill="white"/>
<path d="M45.0006 61.4216L41.6073 58.6293C41.5764 58.6035 41.5764 58.5521 41.6124 58.5264L44.9955 56.4077C45.0264 56.3923 45.0109 56.3459 44.9749 56.3459H43.2421C43.1802 56.3459 43.1235 56.3614 43.0719 56.3973L39.3846 58.7064C39.3433 58.7321 39.2866 58.7012 39.2866 58.655V56.4128C39.2866 56.3768 39.2608 56.3511 39.2247 56.3511H37.8064C37.7704 56.3511 37.7446 56.3768 37.7446 56.4128V61.4318C37.7446 61.4679 37.7755 61.4936 37.8064 61.4936H39.2247C39.2608 61.4936 39.2866 61.4679 39.2866 61.4318V60.0538C39.2866 60.0125 39.3072 59.9766 39.3433 59.9561L40.545 59.2052C40.5862 59.1795 40.6429 59.1847 40.6789 59.2154L43.3659 61.4268C43.4226 61.4731 43.4947 61.4988 43.5721 61.4988H44.9749C45.0162 61.4833 45.0316 61.4422 45.0006 61.4216Z" fill="white"/>
</g>
</svg>
