<svg width="19" height="19" viewBox="0 0 19 19" fill="none" xmlns="http://www.w3.org/2000/svg">
<path d="M12.4998 2.33333V6.5M12.4998 6.5L16.6664 6.5M12.4998 6.5L17.4997 1.5M8.52228 10.5526C7.52097 9.55124 6.73031 8.41904 6.15031 7.21102C6.10042 7.10712 6.07548 7.05516 6.05631 6.98942C5.98821 6.75579 6.03713 6.46891 6.1788 6.27105C6.21867 6.21537 6.2663 6.16774 6.36156 6.07248C6.6529 5.78115 6.79857 5.63548 6.89381 5.48899C7.25297 4.93659 7.25297 4.22443 6.89381 3.67203C6.79857 3.52554 6.6529 3.37988 6.36156 3.08854L6.19917 2.92615C5.7563 2.48328 5.53487 2.26184 5.29705 2.14156C4.82408 1.90233 4.26553 1.90233 3.79256 2.14156C3.55474 2.26184 3.33331 2.48328 2.89044 2.92615L2.75908 3.05751C2.31773 3.49886 2.09705 3.71954 1.92851 4.01956C1.74149 4.35249 1.60703 4.86956 1.60816 5.25141C1.60918 5.59554 1.67594 5.83072 1.80944 6.30109C2.52692 8.82892 3.88065 11.2142 5.87063 13.2042C7.86061 15.1942 10.2459 16.5479 12.7737 17.2654C13.2441 17.3989 13.4793 17.4657 13.8234 17.4667C14.2053 17.4678 14.7224 17.3333 15.0553 17.1463C15.3553 16.9778 15.576 16.7571 16.0173 16.3158L16.1487 16.1844C16.5916 15.7415 16.813 15.5201 16.9333 15.2823C17.1725 14.8093 17.1725 14.2508 16.9333 13.7778C16.813 13.54 16.5916 13.3185 16.1487 12.8757L15.9863 12.7133C15.695 12.4219 15.5493 12.2763 15.4028 12.181C14.8504 11.8219 14.1383 11.8219 13.5858 12.181C13.4394 12.2763 13.2937 12.4219 13.0024 12.7133C12.9071 12.8085 12.8595 12.8562 12.8038 12.896C12.6059 13.0377 12.319 13.0866 12.0854 13.0185C12.0197 12.9994 11.9677 12.9744 11.8638 12.9245C10.6558 12.3445 9.5236 11.5539 8.52228 10.5526Z" stroke="#181818" stroke-width="1.5" stroke-linecap="round" stroke-linejoin="round"/>
</svg>
