<svg width="18" height="18" viewBox="0 0 18 18" fill="none" xmlns="http://www.w3.org/2000/svg">
<path d="M9.00008 11.5C10.3808 11.5 11.5001 10.3807 11.5001 8.99999C11.5001 7.61928 10.3808 6.49999 9.00008 6.49999C7.61937 6.49999 6.50008 7.61928 6.50008 8.99999C6.50008 10.3807 7.61937 11.5 9.00008 11.5Z" stroke="#FF9549" stroke-linecap="round" stroke-linejoin="round"/>
<path d="M14.6061 11.2727C14.5053 11.5012 14.4752 11.7547 14.5198 12.0004C14.5643 12.2462 14.6815 12.473 14.8561 12.6515L14.9016 12.697C15.0425 12.8377 15.1542 13.0048 15.2305 13.1887C15.3067 13.3727 15.346 13.5698 15.346 13.7689C15.346 13.968 15.3067 14.1652 15.2305 14.3491C15.1542 14.5331 15.0425 14.7002 14.9016 14.8409C14.7609 14.9818 14.5938 15.0935 14.4098 15.1698C14.2259 15.246 14.0287 15.2853 13.8296 15.2853C13.6305 15.2853 13.4334 15.246 13.2494 15.1698C13.0655 15.0935 12.8984 14.9818 12.7577 14.8409L12.7122 14.7954C12.5337 14.6208 12.3069 14.5036 12.0611 14.4591C11.8154 14.4145 11.5619 14.4446 11.3334 14.5454C11.1093 14.6415 10.9183 14.8009 10.7836 15.0042C10.649 15.2074 10.5768 15.4456 10.5758 15.6894V15.8182C10.5758 16.22 10.4162 16.6054 10.1321 16.8895C9.84792 17.1737 9.46253 17.3333 9.06069 17.3333C8.65884 17.3333 8.27346 17.1737 7.98931 16.8895C7.70517 16.6054 7.54554 16.22 7.54554 15.8182V15.75C7.53967 15.4992 7.45851 15.256 7.31259 15.052C7.16667 14.848 6.96276 14.6926 6.72735 14.6061C6.49886 14.5052 6.24539 14.4751 5.99964 14.5197C5.75388 14.5642 5.52711 14.6814 5.34857 14.8561L5.30311 14.9015C5.1624 15.0424 4.99529 15.1541 4.81135 15.2304C4.62742 15.3066 4.43026 15.3459 4.23114 15.3459C4.03203 15.3459 3.83487 15.3066 3.65093 15.2304C3.46699 15.1541 3.29989 15.0424 3.15917 14.9015C3.0183 14.7608 2.90654 14.5937 2.83029 14.4097C2.75405 14.2258 2.7148 14.0287 2.7148 13.8295C2.7148 13.6304 2.75405 13.4333 2.83029 13.2493C2.90654 13.0654 3.0183 12.8983 3.15917 12.7576L3.20463 12.7121C3.37928 12.5336 3.49643 12.3068 3.54099 12.061C3.58555 11.8153 3.55547 11.5618 3.45463 11.3333C3.35859 11.1093 3.19914 10.9182 2.99589 10.7836C2.79264 10.649 2.55447 10.5767 2.31069 10.5757H2.1819C1.78006 10.5757 1.39467 10.4161 1.11053 10.132C0.82638 9.84782 0.666748 9.46244 0.666748 9.0606C0.666748 8.65875 0.82638 8.27337 1.11053 7.98922C1.39467 7.70508 1.78006 7.54544 2.1819 7.54544H2.25008C2.50083 7.53958 2.74402 7.45841 2.94804 7.3125C3.15205 7.16658 3.30744 6.96267 3.39402 6.72726C3.49487 6.49877 3.52495 6.2453 3.48039 5.99954C3.43583 5.75379 3.31867 5.52702 3.14402 5.34847L3.09857 5.30302C2.95769 5.1623 2.84594 4.9952 2.76969 4.81126C2.69344 4.62733 2.65419 4.43016 2.65419 4.23105C2.65419 4.03194 2.69344 3.83477 2.76969 3.65084C2.84594 3.4669 2.95769 3.2998 3.09857 3.15908C3.23928 3.01821 3.40639 2.90645 3.59032 2.8302C3.77426 2.75395 3.97142 2.71471 4.17054 2.71471C4.36965 2.71471 4.56681 2.75395 4.75075 2.8302C4.93469 2.90645 5.10179 3.01821 5.24251 3.15908L5.28796 3.20454C5.46651 3.37918 5.69328 3.49634 5.93903 3.5409C6.18478 3.58546 6.43825 3.55538 6.66675 3.45454H6.72735C6.95142 3.3585 7.14252 3.19905 7.27712 2.9958C7.41172 2.79255 7.48396 2.55437 7.48493 2.3106V2.18181C7.48493 1.77996 7.64456 1.39458 7.92871 1.11043C8.21285 0.826288 8.59824 0.666656 9.00008 0.666656C9.40192 0.666656 9.78731 0.826288 10.0715 1.11043C10.3556 1.39458 10.5152 1.77996 10.5152 2.18181V2.24999C10.5162 2.49377 10.5884 2.73194 10.723 2.93519C10.8576 3.13844 11.0487 3.2979 11.2728 3.39393C11.5013 3.49477 11.7548 3.52486 12.0005 3.4803C12.2463 3.43574 12.4731 3.31858 12.6516 3.14393L12.6971 3.09847C12.8378 2.9576 13.0049 2.84585 13.1888 2.7696C13.3727 2.69335 13.5699 2.6541 13.769 2.6541C13.9681 2.6541 14.1653 2.69335 14.3492 2.7696C14.5332 2.84585 14.7003 2.9576 14.841 3.09847C14.9819 3.23919 15.0936 3.4063 15.1699 3.59023C15.2461 3.77417 15.2854 3.97133 15.2854 4.17044C15.2854 4.36956 15.2461 4.56672 15.1699 4.75066C15.0936 4.93459 14.9819 5.1017 14.841 5.24241L14.7955 5.28787C14.6209 5.46641 14.5037 5.69318 14.4592 5.93894C14.4146 6.18469 14.4447 6.43816 14.5455 6.66666V6.72726C14.6416 6.95133 14.801 7.14243 15.0043 7.27703C15.2075 7.41163 15.4457 7.48387 15.6895 7.48484H15.8183C16.2201 7.48484 16.6055 7.64447 16.8896 7.92862C17.1738 8.21276 17.3334 8.59815 17.3334 8.99999C17.3334 9.40183 17.1738 9.78722 16.8896 10.0714C16.6055 10.3555 16.2201 10.5151 15.8183 10.5151H15.7501C15.5063 10.5161 15.2681 10.5883 15.0649 10.723C14.8616 10.8576 14.7022 11.0487 14.6061 11.2727Z" stroke="#FF9549" stroke-linecap="round" stroke-linejoin="round"/>
</svg>
