<svg width="18" height="18" viewBox="0 0 18 18" fill="none" xmlns="http://www.w3.org/2000/svg">
<path d="M13.7879 12.3333C14.4469 11.3884 14.8334 10.2393 14.8334 8.99999C14.8334 8.57092 14.7871 8.15266 14.6992 7.74995M4.21232 12.3333C3.55326 11.3885 3.16675 10.2394 3.16675 8.99999C3.16675 5.77833 5.77842 3.16666 9.00008 3.16666C9.35186 3.16666 9.69637 3.1978 10.031 3.25747M12.75 5.24999L9 8.99999M17.3334 8.99999C17.3334 13.6024 13.6025 17.3333 9.00008 17.3333C4.39771 17.3333 0.666748 13.6024 0.666748 8.99999C0.666748 4.39762 4.39771 0.666656 9.00008 0.666656C13.6025 0.666656 17.3334 4.39762 17.3334 8.99999ZM9.83342 8.99999C9.83342 9.46023 9.46032 9.83332 9.00008 9.83332C8.53984 9.83332 8.16675 9.46023 8.16675 8.99999C8.16675 8.53975 8.53984 8.16666 9.00008 8.16666C9.46032 8.16666 9.83342 8.53975 9.83342 8.99999Z" stroke="#FF9549" stroke-linecap="round" stroke-linejoin="round"/>
</svg>
